<svg width="57" height="56" viewBox="0 0 57 56" fill="none" xmlns="http://www.w3.org/2000/svg">
<rect x="0.5" width="56" height="56" rx="28" fill="#064041"/>
<g clip-path="url(#clip0_366_3038)">
<path d="M22.4944 43.8121C35.7025 43.8121 42.9278 32.868 42.9278 23.3939C42.9307 23.0862 42.9264 22.7785 42.9147 22.4708C44.3209 21.452 45.5349 20.1913 46.5 18.7477C45.1856 19.3258 43.7933 19.7076 42.3678 19.8808C43.8697 18.9833 44.9946 17.5708 45.5331 15.9061C44.1228 16.7433 42.5782 17.3302 40.9678 17.6408C39.8854 16.4881 38.4531 15.7244 36.8927 15.4681C35.3323 15.2118 33.731 15.4772 32.3367 16.2232C30.9424 16.9691 29.833 18.1541 29.1804 19.5944C28.5277 21.0347 28.3682 22.65 28.7266 24.1902C25.8712 24.0477 23.0777 23.3062 20.5274 22.014C17.9772 20.7217 15.7273 18.9075 13.9238 16.6893C13.0085 18.2711 12.7293 20.142 13.1428 21.9221C13.5564 23.7023 14.6317 25.2585 16.1506 26.2749C15.0118 26.2381 13.8979 25.9322 12.9 25.3824V25.4808C12.9028 27.1376 13.4771 28.7427 14.526 30.0251C15.5749 31.3076 17.0342 32.1888 18.6575 32.5202C18.0412 32.6901 17.4046 32.7747 16.7653 32.7718C16.3145 32.7764 15.8644 32.7346 15.4222 32.6471C15.8802 34.074 16.7736 35.3216 17.9768 36.2149C19.1801 37.1083 20.6329 37.6024 22.1313 37.628C19.5852 39.6251 16.4421 40.709 13.2062 40.7058C12.636 40.7101 12.066 40.6772 11.5 40.6074C14.7844 42.7018 18.599 43.8138 22.4944 43.8121Z" fill="#F8FBF8"/>
</g>
<defs>
<clipPath id="clip0_366_3038">
<rect width="35" height="35" fill="white" transform="translate(11.5 11)"/>
</clipPath>
</defs>
</svg>
