<svg width="57" height="56" viewBox="0 0 57 56" fill="none" xmlns="http://www.w3.org/2000/svg">
<rect x="0.5" width="56" height="56" rx="28" fill="#064041"/>
<path fill-rule="evenodd" clip-rule="evenodd" d="M29.744 23.8275V26.3023C30.2622 25.5129 30.9766 24.8715 31.8171 24.441C32.6576 24.0105 33.5955 23.8057 34.539 23.8465C39.5775 23.8465 40.6669 26.9965 40.6669 31.0944V39.4375H36.0002V32.0408C36.0002 30.2763 35.6444 28.0071 32.8969 28.0071C30.2325 28.0071 29.7775 29.9277 29.7775 31.9096V39.4375H25.1254V23.8275H29.744ZM22.0002 19.9046C21.9997 20.3669 21.8626 20.8187 21.6063 21.2035C21.35 21.5882 20.9858 21.8887 20.5594 22.0673C20.1332 22.2445 19.6639 22.2908 19.2112 22.2004C18.7586 22.11 18.3431 21.887 18.0175 21.5598C17.6914 21.2323 17.4694 20.8158 17.3794 20.3625C17.2893 19.9091 17.3354 19.4393 17.5116 19.0121C17.6879 18.5849 17.9866 18.2193 18.3701 17.9614C18.7536 17.7035 19.2048 17.5647 19.6669 17.5625C19.9741 17.5625 20.2782 17.6231 20.5619 17.7409C20.8455 17.8588 21.1031 18.0314 21.3199 18.249C21.5367 18.4666 21.7084 18.7249 21.8251 19.009C21.9419 19.2931 22.0014 19.5974 22.0002 19.9046Z" fill="#F8FBF8"/>
<path d="M22.0002 23.8467H17.3335V39.4377H22.0002V23.8467Z" fill="#F8FBF8"/>
</svg>
