<svg width="57" height="56" viewBox="0 0 57 56" fill="none" xmlns="http://www.w3.org/2000/svg">
<rect x="0.5" width="56" height="56" rx="28" fill="#064041"/>
<path d="M37.3325 20.1094C37.1668 20.1094 37.0078 20.0435 36.8906 19.9263C36.7734 19.8091 36.7075 19.6501 36.7075 19.4844C36.7075 19.3186 36.7734 19.1596 36.8906 19.0424C37.0078 18.9252 37.1668 18.8594 37.3325 18.8594M37.3325 20.1094C37.4983 20.1094 37.6573 20.0435 37.7745 19.9263C37.8917 19.8091 37.9575 19.6501 37.9575 19.4844C37.9575 19.3186 37.8917 19.1596 37.7745 19.0424C37.6573 18.9252 37.4983 18.8594 37.3325 18.8594" stroke="#F8FBF8" stroke-width="1.71429" stroke-linecap="round" stroke-linejoin="round"/>
<path d="M13.6451 19.577C13.6451 17.871 14.3228 16.2349 15.5291 15.0286C16.7354 13.8222 18.3716 13.1445 20.0776 13.1445H37.2326C38.0773 13.1445 38.9138 13.3109 39.6942 13.6342C40.4746 13.9574 41.1837 14.4313 41.781 15.0286C42.3784 15.6259 42.8522 16.335 43.1754 17.1154C43.4987 17.8958 43.6651 18.7323 43.6651 19.577V36.732C43.6651 38.438 42.9874 40.0742 41.781 41.2805C40.5747 42.4868 38.9386 43.1645 37.2326 43.1645H20.0751C18.3691 43.1645 16.7329 42.4868 15.5266 41.2805C14.3203 40.0742 13.6426 38.438 13.6426 36.732V19.5745L13.6451 19.577Z" stroke="#F8FBF8" stroke-width="1.71429" stroke-linecap="round" stroke-linejoin="round"/>
<path d="M22.2803 28.1543C22.2803 28.9915 22.4452 29.8205 22.7655 30.5939C23.0859 31.3674 23.5555 32.0701 24.1475 32.6621C24.7394 33.2541 25.4422 33.7237 26.2157 34.044C26.9891 34.3644 27.8181 34.5293 28.6553 34.5293C29.4925 34.5293 30.3214 34.3644 31.0949 34.044C31.8683 33.7237 32.5711 33.2541 33.1631 32.6621C33.7551 32.0701 34.2246 31.3674 34.545 30.5939C34.8654 29.8205 35.0303 28.9915 35.0303 28.1543C35.0303 26.4635 34.3586 24.842 33.1631 23.6465C31.9675 22.4509 30.346 21.7793 28.6553 21.7793C26.9645 21.7793 25.343 22.4509 24.1475 23.6465C22.9519 24.842 22.2803 26.4635 22.2803 28.1543Z" stroke="#F8FBF8" stroke-width="1.71429" stroke-linecap="round" stroke-linejoin="round"/>
</svg>
