<svg xmlns="http://www.w3.org/2000/svg" xmlns:xlink="http://www.w3.org/1999/xlink"
    viewBox="0 0 1920 1920">
    <defs>
        <style>.cls-1,.cls-3{fill:#4c934c;}.cls-2{fill:#225622;}.cls-3{font-size:314.26px;font-family:DecoTypeThuluth,
            DecoType Thuluth;}.cls-4{clip-path:url(#clip-path);}.cls-5{fill:#154c15;}</style>
        <clipPath id="clip-path">
            <path class="cls-1"
                d="M118.28,306.2V1410.31L220,1453.43l9.42-3.25c139-47,230-121.66,230-121.66,96.09-56.22,61.33-134.94,61.33-134.94C506.5,1120,318.4,1041.25,318.4,1041.25c-22.7-14.32-25.37-27-25.75-32.3-1.93-26.94,41.29-59.12,111.62-74q30.42-6.64,61.34-13.8c34.34-8,74-19.82,107.18-28.22,6-3.68,28.09-18.17,36.94-54.59C621,792,578.08,745.1,575,741.57c18.4-3.75,64-8.88,81.93-10.41,5.63,6.07,27.34,55.79,21.8,113.3-6.4,66.46-61.16,89.27-66.53,92.33-23.46,5-49.07,21.33-75.61,29.42-23.68,7.21-45.67,15-65.9,22.9-83.83,29.65,8.18,55.21,8.18,55.21,264.78,103.25,283.18,143.12,283.18,143.12C832.62,1258,785.6,1318.3,785.6,1318.3c-2.05,51.12-212.94,249.07-213,249.09l370.65-157.08V306.2ZM520.15,633.67q-75.4,37.08-150.83,74.12c-5.82,2.85-11.8,5.51-18.61,5.35,1.69-5.42,3.85-10.38,4.73-15.56,2.05-12,9.5-19.69,19-26.28,15.57-10.77,30.94-21.84,46.3-32.92a138.57,138.57,0,0,0,36.47-39.28c1.63-2.61,2.71-4.72,6.66-3.12,24,9.74,48,19.21,73.31,29.27C530.86,628.38,525.51,631,520.15,633.67ZM395.28,572.1c2.46-2.18,3.87-.7,5.73.25,3.25,1.64,6.52,3.24,9.74,4.93,3.65,1.91,7.26,3.89,11.88,6.36-8.3,4.52-15.75,8.55-23.17,12.64-4.85,2.66-7.64.92-9.5-3.93C387,584.55,388.84,577.82,395.28,572.1ZM516.8,606.38q-118-46.86-236-93.76a11.25,11.25,0,0,0-2.11-.41c0-.49,0-1,0-1.46a26.85,26.85,0,0,0,2.5-3.36q35.73-66.93,71.44-133.88c7.17-13.42,13.31-27.5,24-38.72l13.14-.1c3.86,1.73,2.05,4.28,1,6.72-20.5,47.18-40.92,94.4-61.61,141.49-2.11,4.8-1.68,7,2.67,10.39,38,29.29,82.35,43.95,128,55.43,24.24,6.09,46.59,16.61,68.15,28.83,16.57,9.39,23.56,25.44,28.5,44.37C542.34,616.39,529.54,611.45,516.8,606.38Zm39.05-20.31c-29.74-28.08-67.42-40.49-105-53.31-29.37-10-59.21-18.83-87.61-31.58a98.89,98.89,0,0,1-9.84-4.73c-12.29-7.24-13.59-11.42-7.95-24.19Q373.58,408.65,401.66,345c1.06-2.41,2.23-4.75,3.61-7.67a232.55,232.55,0,0,0,43.16,26,310,310,0,0,0,58.47,20c21.1,4.93,34.81,19.39,47.75,35.13,1.9,2.32,1.18,5.14,1.23,7.74q1,52.15,1.87,104.33c0,2.62,0,5.24.07,9.4,2-4,1.34-6.7,1.35-9.27.14-35,.27-70.05.19-105.07a16,16,0,0,1,3.79-10.54c13.57-17.4,30.21-29.19,52.19-34.79,32.42-8.26,62.9-21.64,89.52-42.48,4.08-3.19,4.8-1.27,6.31,2q25.92,56.61,52,113.14c3.35,7.28,6.39,14.72,10.21,21.74,2.58,4.75,1.48,7.86-2,11.43A51.38,51.38,0,0,1,756,496.94c-32.81,15.43-67.47,25.95-101.43,38.29-33.48,12.16-66.33,25.27-92.5,50.67C560,588,558.1,588.2,555.85,586.07ZM769.21,712.24c-62.2-27.52-123.06-58-184.12-86.12-1-1.75-.29-2.06.35-2.33q34.63-14.34,69.26-28.7c2.86-1.18,4.95-2.3,7.18,1.41,13,21.58,32.12,36.84,52.68,50.59,10.3,6.89,20.37,14.13,30.84,20.75s18.29,14.94,20.74,27.62c1,5,2.9,9.74,4.4,14.61ZM696.83,581.43l18.29-9.83c7.37-4,14.33-.38,15.57,8.25a22.31,22.31,0,0,1-.46,7.93c-1.67,7.35-4.75,8.81-11.44,5.41C711.68,589.58,704.72,585.67,696.83,581.43Zm34.9-29.84Q650,585.37,568.38,619.29c-1.68.69-3.27,2.16-6.1,1.32,4.34-18.79,12.2-34.89,29.73-45.08,27.07-15.73,56-26.45,86.19-34.47C717,530.72,753.09,514.35,785,489.47c3.76-2.94,4.45-4.85,2.42-9.29Q755.34,410,723.72,339.65c-1.08-2.4-2.8-4.61-2.44-7.48l16.06-.13a106.18,106.18,0,0,1,14.16,19.23c16.46,29.9,32.76,59.89,49.42,89.67,12.26,21.91,23.61,44.33,37.06,65.56V508C802.57,522.5,767.11,537,731.73,551.59Z" />
        </clipPath>
    </defs>
    <g id="راس_السهم" data-name="راس السهم">
        <polygon class="cls-1"
            points="118.28 1482.38 118.28 1546.79 530.78 1732.34 943.29 1546.79 943.29 1482.38 535.38 1666.4 118.28 1482.38" />
    </g>
    <g id="قاعدة_السهم" data-name="قاعدة السهم">
        <rect class="cls-1" x="118.28" y="189.66" width="825.01" height="61.34" />
    </g>
    <g id="مسار">
        <path class="cls-2"
            d="M1326.76,1101.51a50.74,50.74,0,0,1-1.47,10.62q-1.8,7.68-3.75,7.68c-.88,0-1.7-.92-2.46-2.78q-6.52-11.76-24.67-11.76-18.63,0-43,19.77-11.94,9.64-54.42,52.13-23,22.88-36.93,23a29.89,29.89,0,0,1-22.88-9.8,33.42,33.42,0,0,1-9.48-23.86q0-29.27,19.77-64.72,2.46-4.41,5.23-4.41c.55,0,.82.38.82,1.15,0,1.2-.76,3.26-2.29,6.21q-18,35.63-16.67,59.64,1,17.82,14.06,17.82,19-.16,46.41-26.15,24.67-24.18,49.19-48.37,30.39-26,56.7-26,11.44,0,18.63,5.64T1326.76,1101.51Z" />
        <path class="cls-2"
            d="M1428.41,1144.49q-14.87,0-27.62-14.22a60,60,0,0,1-13.23-22.72q-4.75-15.52-9.16-59.15-4.89-48.71-11.27-91-1.8-12.42-8.34-33.34-5.88-19.28-5.88-20.26,2.29-7.68,5.23-19.77a1.47,1.47,0,0,1,1.31-.82q4.08,0,11.44,24.68a353.5,353.5,0,0,1,10.29,44.28q5.88,37.59,9.32,77,1.62,21.42,3.43,42.82,3.1,24.84,15.36,38.73,9.64,11,19.12,10.95Z" />
        <path class="cls-2"
            d="M1609,1144.49q-19-.49-26-10.46-3.77-5.23-4.25-13.4-12.59,28.42-28.6,28.43-10.14,0-14.22-6.37-.66-1-4.08-11.28-2.79,4.58-10.79,13.73-12.25,11.11-26,11.11-11.28,0-17.82-7.68-7.18-8.49-6.21-23.37-8.82,7-25.16,13.57-14.06,5.71-17.49,5.72v-22.88q17.16,0,49.19-16.83c3.7-1.53,5.07-2.29,4.09-2.29.43.11.65.49.65,1.14a17.61,17.61,0,0,1-.9,4.33q-.9,3-2.53,8.58,7,16,21.57,16,8.49,0,17.48-5.56a38.41,38.41,0,0,0,12.1-11.93,70.32,70.32,0,0,1,10.78-13.24,4,4,0,0,1,1.64-.49c.65,0,1,.39,1,1.15q0,.16-3.6,11.6,7.68,10.62,15.2,11.44,12.09,1.31,19.94-13.89a148.86,148.86,0,0,1,6.86-13.73q4.08-3.11,5.07-1.8.81,1.16-.82,6.21.81,2.29,2.78,7a20.83,20.83,0,0,0,7.35,8.66,25.73,25.73,0,0,0,12.75,3.6Z" />
        <path class="cls-2"
            d="M1702.79,1109.19A34.94,34.94,0,0,1,1699,1125q-4.24,8-9.8,8-6.21,0-18.63-6-14.22-7.18-20.76-15.85-9.48,16-12.74,19.61-11.94,13.73-28.11,13.73v-22.88a54.94,54.94,0,0,0,21.08-4.09q6.21-2.61,15.36-16,8.67-12.59,10.46-12.59c.54,0,1,.39,1.47,1.15q11.12-21.09,24.19-21.08,10.62,0,16.34,12.91Q1702.8,1092.85,1702.79,1109.19Zm-16.67-2.13a20,20,0,0,0-3.35-10.7q-3.18-4.81-6.78-4.82-6.85,0-10.78,3.59,7.35,6.7,8.33,7.36A26.81,26.81,0,0,0,1686.12,1107.06Z" />
    </g>
    <g id="اكاديمية">
        <text class="cls-3" transform="translate(1004.63 729.1)">
            ةييداكأ</text>
    </g>
    <g id="المصحف">
        <path class="cls-1"
            d="M118.28,306.2V1410.31L220,1453.43l9.42-3.25c139-47,230-121.66,230-121.66,96.09-56.22,61.33-134.94,61.33-134.94C506.5,1120,318.4,1041.25,318.4,1041.25c-22.7-14.32-25.37-27-25.75-32.3-1.93-26.94,41.29-59.12,111.62-74q30.42-6.64,61.34-13.8c34.34-8,74-19.82,107.18-28.22,6-3.68,28.09-18.17,36.94-54.59C621,792,578.08,745.1,575,741.57c18.4-3.75,64-8.88,81.93-10.41,5.63,6.07,27.34,55.79,21.8,113.3-6.4,66.46-61.16,89.27-66.53,92.33-23.46,5-49.07,21.33-75.61,29.42-23.68,7.21-45.67,15-65.9,22.9-83.83,29.65,8.18,55.21,8.18,55.21,264.78,103.25,283.18,143.12,283.18,143.12C832.62,1258,785.6,1318.3,785.6,1318.3c-2.05,51.12-212.94,249.07-213,249.09l370.65-157.08V306.2ZM520.15,633.67q-75.4,37.08-150.83,74.12c-5.82,2.85-11.8,5.51-18.61,5.35,1.69-5.42,3.85-10.38,4.73-15.56,2.05-12,9.5-19.69,19-26.28,15.57-10.77,30.94-21.84,46.3-32.92a138.57,138.57,0,0,0,36.47-39.28c1.63-2.61,2.71-4.72,6.66-3.12,24,9.74,48,19.21,73.31,29.27C530.86,628.38,525.51,631,520.15,633.67ZM395.28,572.1c2.46-2.18,3.87-.7,5.73.25,3.25,1.64,6.52,3.24,9.74,4.93,3.65,1.91,7.26,3.89,11.88,6.36-8.3,4.52-15.75,8.55-23.17,12.64-4.85,2.66-7.64.92-9.5-3.93C387,584.55,388.84,577.82,395.28,572.1ZM516.8,606.38q-118-46.86-236-93.76a11.25,11.25,0,0,0-2.11-.41c0-.49,0-1,0-1.46a26.85,26.85,0,0,0,2.5-3.36q35.73-66.93,71.44-133.88c7.17-13.42,13.31-27.5,24-38.72l13.14-.1c3.86,1.73,2.05,4.28,1,6.72-20.5,47.18-40.92,94.4-61.61,141.49-2.11,4.8-1.68,7,2.67,10.39,38,29.29,82.35,43.95,128,55.43,24.24,6.09,46.59,16.61,68.15,28.83,16.57,9.39,23.56,25.44,28.5,44.37C542.34,616.39,529.54,611.45,516.8,606.38Zm39.05-20.31c-29.74-28.08-67.42-40.49-105-53.31-29.37-10-59.21-18.83-87.61-31.58a98.89,98.89,0,0,1-9.84-4.73c-12.29-7.24-13.59-11.42-7.95-24.19Q373.58,408.65,401.66,345c1.06-2.41,2.23-4.75,3.61-7.67a232.55,232.55,0,0,0,43.16,26,310,310,0,0,0,58.47,20c21.1,4.93,34.81,19.39,47.75,35.13,1.9,2.32,1.18,5.14,1.23,7.74q1,52.15,1.87,104.33c0,2.62,0,5.24.07,9.4,2-4,1.34-6.7,1.35-9.27.14-35,.27-70.05.19-105.07a16,16,0,0,1,3.79-10.54c13.57-17.4,30.21-29.19,52.19-34.79,32.42-8.26,62.9-21.64,89.52-42.48,4.08-3.19,4.8-1.27,6.31,2q25.92,56.61,52,113.14c3.35,7.28,6.39,14.72,10.21,21.74,2.58,4.75,1.48,7.86-2,11.43A51.38,51.38,0,0,1,756,496.94c-32.81,15.43-67.47,25.95-101.43,38.29-33.48,12.16-66.33,25.27-92.5,50.67C560,588,558.1,588.2,555.85,586.07ZM769.21,712.24c-62.2-27.52-123.06-58-184.12-86.12-1-1.75-.29-2.06.35-2.33q34.63-14.34,69.26-28.7c2.86-1.18,4.95-2.3,7.18,1.41,13,21.58,32.12,36.84,52.68,50.59,10.3,6.89,20.37,14.13,30.84,20.75s18.29,14.94,20.74,27.62c1,5,2.9,9.74,4.4,14.61ZM696.83,581.43l18.29-9.83c7.37-4,14.33-.38,15.57,8.25a22.31,22.31,0,0,1-.46,7.93c-1.67,7.35-4.75,8.81-11.44,5.41C711.68,589.58,704.72,585.67,696.83,581.43Zm34.9-29.84Q650,585.37,568.38,619.29c-1.68.69-3.27,2.16-6.1,1.32,4.34-18.79,12.2-34.89,29.73-45.08,27.07-15.73,56-26.45,86.19-34.47C717,530.72,753.09,514.35,785,489.47c3.76-2.94,4.45-4.85,2.42-9.29Q755.34,410,723.72,339.65c-1.08-2.4-2.8-4.61-2.44-7.48l16.06-.13a106.18,106.18,0,0,1,14.16,19.23c16.46,29.9,32.76,59.89,49.42,89.67,12.26,21.91,23.61,44.33,37.06,65.56V508C802.57,522.5,767.11,537,731.73,551.59Z" />
        <g class="cls-4">
            <path class="cls-5"
                d="M943.29,750.91S515,637.66,118.28,936.79h0v670.57H964.52V755.7l-21.23-4.79" />
        </g>
    </g>
</svg>